Coordinates
version=1
nRows=38
nColumns=12
inDegrees=yes

Units are S.I. units (second, meters, Newtons, ...)
Angles are in degrees

endheader
time	SC_y	SC_z	SC_x	AC_y	AC_z	AC_x	GH_y	GH_z	GH_yy	EL_x	PS_y
       0.0              -32.18          10.13          1.847          53.75          5.559         -12.83          178.8          80.92         -14.62          103.1          78.59
   0.04926              -32.18          10.13          1.853          53.75          5.557         -12.82          178.7          80.92         -14.61          103.1           78.6
   0.09853              -32.18          10.13           1.86          53.75          5.555         -12.82          178.7          80.92         -14.61          103.1          78.61
    0.1478              -32.18          10.13          1.867          53.75          5.553         -12.82          178.6          80.92          -14.6          103.1          78.62
    0.1971              -32.18          10.13          1.875          53.76           5.55         -12.82          178.6          80.92          -14.6          103.1          78.63
    0.2463              -32.19          10.13          1.883          53.76          5.548         -12.82          178.5          80.92         -14.59          103.1          78.65
    0.2956              -32.19          10.14          1.891          53.76          5.545         -12.81          178.5          80.92         -14.58          103.1          78.66
    0.3448              -32.19          10.14            1.9          53.76          5.542         -12.81          178.4          80.92         -14.57          103.1          78.68
    0.3941              -32.19          10.14           1.91          53.77          5.539         -12.81          178.3          80.92         -14.57          103.1          78.69
    0.4434              -32.19          10.14          1.921          53.77          5.536         -12.81          178.3          80.92         -14.56          103.1          78.71
    0.4926              -32.19          10.15          1.932          53.77          5.532          -12.8          178.2          80.92         -14.55          103.2          78.73
    0.5419               -32.2          10.15          1.944          53.77          5.528          -12.8          178.1          80.92         -14.54          103.2          78.75
    0.5912               -32.2          10.15          1.958          53.78          5.524          -12.8          178.0          80.92         -14.53          103.2          78.77
    0.6404               -32.2          10.16          1.972          53.78          5.519         -12.79          177.9          80.92         -14.52          103.2           78.8
    0.6897               -32.2          10.16          1.987          53.78          5.514         -12.79          177.8          80.92          -14.5          103.2          78.82
    0.7389              -32.21          10.16          2.004          53.79          5.509         -12.78          177.7          80.92         -14.49          103.2          78.85
    0.7882              -32.21          10.17          2.022          53.79          5.503         -12.78          177.6          80.92         -14.47          103.2          78.88
    0.8375              -32.21          10.17          2.042           53.8          5.497         -12.78          177.4          80.92         -14.46          103.2          78.91
    0.8867              -32.22          10.18          2.063           53.8           5.49         -12.77          177.3          80.92         -14.44          103.2          78.95
     0.936              -32.22          10.18          2.087          53.81          5.483         -12.76          177.1          80.92         -14.42          103.2          78.99
    0.9853              -32.23          10.19          2.113          53.81          5.474         -12.76          176.9          80.92          -14.4          103.3          79.03
     1.035              -32.23           10.2          2.142          53.82          5.465         -12.75          176.7          80.92         -14.38          103.3          79.08
     1.084              -32.24          10.21          2.173          53.83          5.455         -12.74          176.5          80.92         -14.35          103.3          79.13
     1.133              -32.24          10.21          2.208          53.84          5.444         -12.73          176.3          80.92         -14.32          103.3          79.19
     1.182              -32.25          10.22          2.247          53.85          5.431         -12.72          176.0          80.92         -14.29          103.3          79.25
     1.232              -32.26          10.24           2.29          53.86          5.418         -12.71          175.7          80.92         -14.25          103.4          79.33
     1.281              -32.27          10.25          2.339          53.87          5.402          -12.7          175.4          80.92         -14.21          103.4          79.41
      1.33              -32.28          10.26          2.394          53.88          5.385         -12.69          175.0          80.92         -14.17          103.4           79.5
     1.379              -32.29          10.28          2.455           53.9          5.365         -12.67          174.6          80.92         -14.12          103.5           79.6
     1.429               -32.3          10.29          2.526          53.92          5.342         -12.65          174.1          80.91         -14.06          103.5          79.72
     1.478              -32.32          10.31          2.606          53.94          5.317         -12.63          173.5          80.91         -13.99          103.6          79.85
     1.527              -32.33          10.34          2.697          53.96          5.287         -12.61          172.9          80.91         -13.92          103.6           80.0
     1.576              -32.35          10.36          2.803          53.98          5.254         -12.58          172.1          80.91         -13.83          103.7          80.18
     1.626              -32.37          10.39          2.927          54.01          5.214         -12.55          171.3          80.91         -13.73          103.7          80.38
     1.675               -32.4          10.43          3.071          54.05          5.168         -12.51          170.3          80.91         -13.61          103.8          80.62
     1.724              -32.43          10.47          3.241          54.09          5.114         -12.47          169.1          80.91         -13.47          103.9          80.91
     1.773              -32.47          10.52          3.443          54.14          5.049         -12.42          167.7           80.9         -13.31          104.1          81.24
     1.823              -32.51          10.58          3.685           54.2          4.972         -12.35          166.0           80.9         -13.11          104.2          81.64
